<svg width="0" height="0" class="hidden">
  <symbol fill="none" xmlns="http://www.w3.org/2000/svg" viewBox="0 0 19 21" id="google">
    <path d="M18.7586 8.95799H18.0014V8.91652H9.54087V12.9135H14.8536C14.0785 15.2403 11.9958 16.9105 9.54087 16.9105C6.426 16.9105 3.90054 14.226 3.90054 10.915C3.90054 7.60401 6.426 4.91953 9.54087 4.91953C10.9787 4.91953 12.2868 5.49609 13.2828 6.43788L15.9417 3.61151C14.2628 1.94826 12.017 0.922531 9.54087 0.922531C4.34942 0.922531 0.140324 5.39667 0.140324 10.915C0.140324 16.4334 4.34942 20.9075 9.54087 20.9075C14.7323 20.9075 18.9414 16.4334 18.9414 10.915C18.9414 10.245 18.8766 9.59101 18.7586 8.95799Z" fill="#FFC107"></path>
    <path d="M9.5409 20.9075C11.9691 20.9075 14.1754 19.9197 15.8435 18.3134L12.934 15.6964C11.9585 16.485 10.7665 16.9115 9.5409 16.9105C7.09582 16.9105 5.01971 15.2532 4.23758 12.9404L1.17206 15.4511C2.72785 18.6871 5.88738 20.9075 9.5409 20.9075Z" fill="#4CAF50"></path>
    <path d="M18.7586 8.95803H18.0013V8.91656H9.54085V12.9136H14.8536C14.4828 14.0209 13.815 14.9886 12.9326 15.697L12.934 15.696L15.8434 18.313C15.6376 18.5118 18.9414 15.9113 18.9414 10.9151C18.9414 10.2451 18.8765 9.59106 18.7586 8.95803Z" fill="#1976D2"></path>
    <path d="M1.22416 6.26402L4.3127 8.67171C5.14841 6.47236 7.17235 4.91953 9.54082 4.91953C10.9786 4.91953 12.2867 5.49609 13.2827 6.43788L15.9416 3.61151C14.2627 1.94826 12.0169 0.922531 9.54082 0.922531C5.93007 0.922531 2.79875 3.0894 1.22416 6.26402Z" fill="#FF3D00"></path>
  </symbol>
  <symbol fill="none" xmlns="http://www.w3.org/2000/svg" viewBox="0 0 192 46" id="Logo">
    <path d="M50.1127 13.7974V17.3669H55.8692V20.6851H50.1127V24.5562H56.6233V28H45.8142V10.3536H56.6233V13.7974H50.1127ZM63.7124 16.3112C64.2151 15.5403 64.8436 14.937 65.5977 14.5013C66.3518 14.0488 67.1897 13.8226 68.1114 13.8226V18.3724H66.93C65.8574 18.3724 65.053 18.607 64.5168 19.0763C63.9805 19.5287 63.7124 20.3331 63.7124 21.4894V28H59.4139V13.9734H63.7124V16.3112ZM77.2044 17.5429H74.8918V28H70.5933V17.5429H69.0348V13.9734H70.5933V13.5712C70.5933 11.8451 71.0877 10.538 72.0764 9.64978C73.0652 8.74484 74.5147 8.29237 76.4252 8.29237C76.7436 8.29237 76.9782 8.30075 77.129 8.31751V11.9624C76.3079 11.9121 75.7297 12.0294 75.3945 12.3143C75.0594 12.5992 74.8918 13.1103 74.8918 13.8477V13.9734H77.2044V17.5429ZM78.3696 20.9616C78.3696 19.5204 78.6377 18.2551 79.174 17.1658C79.727 16.0765 80.4727 15.2386 81.4112 14.6521C82.3497 14.0656 83.397 13.7723 84.5534 13.7723C85.5421 13.7723 86.4051 13.9734 87.1425 14.3756C87.8966 14.7778 88.4748 15.3057 88.877 15.9592V13.9734H93.1754V28H88.877V26.0142C88.458 26.6677 87.8715 27.1956 87.1174 27.5978C86.38 28 85.517 28.2011 84.5282 28.2011C83.3887 28.2011 82.3497 27.9078 81.4112 27.3213C80.4727 26.718 79.727 25.8717 79.174 24.7824C78.6377 23.6764 78.3696 22.4028 78.3696 20.9616ZM88.877 20.9867C88.877 19.9142 88.5753 19.0679 87.972 18.4478C87.3855 17.8278 86.6649 17.5178 85.8102 17.5178C84.9556 17.5178 84.2266 17.8278 83.6233 18.4478C83.0367 19.0511 82.7435 19.889 82.7435 20.9616C82.7435 22.0341 83.0367 22.8888 83.6233 23.5256C84.2266 24.1456 84.9556 24.4556 85.8102 24.4556C86.6649 24.4556 87.3855 24.1456 87.972 23.5256C88.5753 22.9055 88.877 22.0592 88.877 20.9867ZM104.832 13.8226C106.474 13.8226 107.781 14.3588 108.753 15.4314C109.742 16.4871 110.236 17.9451 110.236 19.8052V28H105.963V20.3834C105.963 19.4449 105.72 18.716 105.234 18.1965C104.748 17.677 104.095 17.4172 103.273 17.4172C102.452 17.4172 101.799 17.677 101.313 18.1965C100.827 18.716 100.584 19.4449 100.584 20.3834V28H96.2852V13.9734H100.584V15.8336C101.019 15.2135 101.606 14.7275 102.343 14.3756C103.081 14.0069 103.91 13.8226 104.832 13.8226Z" fill="white"></path>
    <path d="M87.3361 41.5038L84.3555 38.2013V41.5038H83.4105V34.2653H84.3555V37.6197L87.3465 34.2653H88.5408L85.259 37.8897L88.572 41.5038H87.3361ZM101.436 34.2653V41.5038H100.491V38.2221H96.8037V41.5038H95.8587V34.2653H96.8037V37.4432H100.491V34.2653H101.436ZM112.562 41.5765C111.891 41.5765 111.278 41.4208 110.724 41.1092C110.17 40.7907 109.731 40.3511 109.405 39.7903C109.087 39.2225 108.927 38.5856 108.927 37.8794C108.927 37.1732 109.087 36.5396 109.405 35.9788C109.731 35.4111 110.17 34.9715 110.724 34.6599C111.278 34.3414 111.891 34.1822 112.562 34.1822C113.241 34.1822 113.857 34.3414 114.411 34.6599C114.965 34.9715 115.401 35.4076 115.719 35.9685C116.038 36.5293 116.197 37.1662 116.197 37.8794C116.197 38.5925 116.038 39.2295 115.719 39.7903C115.401 40.3511 114.965 40.7907 114.411 41.1092C113.857 41.4208 113.241 41.5765 112.562 41.5765ZM112.562 40.7561C113.068 40.7561 113.521 40.6384 113.923 40.403C114.331 40.1676 114.65 39.8318 114.878 39.3956C115.114 38.9594 115.231 38.454 115.231 37.8794C115.231 37.2978 115.114 36.7924 114.878 36.3631C114.65 35.9269 114.335 35.5911 113.933 35.3557C113.532 35.1203 113.075 35.0026 112.562 35.0026C112.05 35.0026 111.593 35.1203 111.191 35.3557C110.79 35.5911 110.471 35.9269 110.236 36.3631C110.008 36.7924 109.893 37.2978 109.893 37.8794C109.893 38.454 110.008 38.9594 110.236 39.3956C110.471 39.8318 110.79 40.1676 111.191 40.403C111.6 40.6384 112.057 40.7561 112.562 40.7561ZM127.487 41.5038L125.763 38.544H124.621V41.5038H123.676V34.2653H126.013C126.56 34.2653 127.02 34.3587 127.394 34.5457C127.775 34.7326 128.059 34.9853 128.246 35.3038C128.433 35.6223 128.526 35.9858 128.526 36.3943C128.526 36.8927 128.381 37.3324 128.09 37.7132C127.806 38.094 127.377 38.3467 126.802 38.4713L128.619 41.5038H127.487ZM124.621 37.7859H126.013C126.525 37.7859 126.909 37.6613 127.165 37.412C127.422 37.1558 127.55 36.8166 127.55 36.3943C127.55 35.965 127.422 35.6327 127.165 35.3973C126.916 35.1619 126.532 35.0442 126.013 35.0442H124.621V37.7859ZM138.521 41.5765C138.043 41.5765 137.614 41.4935 137.233 41.3273C136.859 41.1542 136.565 40.9188 136.35 40.6211C136.136 40.3165 136.025 39.9668 136.018 39.5722H137.025C137.06 39.9114 137.198 40.1988 137.441 40.4342C137.69 40.6626 138.05 40.7769 138.521 40.7769C138.971 40.7769 139.324 40.6661 139.58 40.4445C139.843 40.2161 139.975 39.9253 139.975 39.5722C139.975 39.2952 139.899 39.0702 139.746 38.8971C139.594 38.724 139.404 38.5925 139.175 38.5025C138.947 38.4125 138.639 38.3155 138.251 38.2117C137.773 38.0871 137.389 37.9624 137.098 37.8378C136.814 37.7132 136.568 37.5193 136.361 37.2562C136.16 36.9862 136.059 36.6262 136.059 36.1762C136.059 35.7815 136.16 35.4319 136.361 35.1272C136.561 34.8226 136.842 34.5872 137.202 34.421C137.569 34.2549 137.988 34.1718 138.459 34.1718C139.137 34.1718 139.691 34.3414 140.12 34.6807C140.556 35.0199 140.802 35.47 140.858 36.0308H139.819C139.784 35.7538 139.639 35.5115 139.383 35.3038C139.127 35.0892 138.787 34.9818 138.365 34.9818C137.97 34.9818 137.648 35.0857 137.399 35.2934C137.15 35.4942 137.025 35.7781 137.025 36.145C137.025 36.4081 137.098 36.6227 137.243 36.7889C137.396 36.9551 137.579 37.0831 137.794 37.1732C138.015 37.2562 138.324 37.3532 138.718 37.4639C139.196 37.5955 139.58 37.727 139.871 37.8586C140.162 37.9832 140.411 38.1805 140.619 38.4506C140.826 38.7136 140.93 39.0737 140.93 39.5306C140.93 39.8837 140.837 40.2161 140.65 40.5276C140.463 40.8392 140.186 41.0919 139.819 41.2858C139.452 41.4796 139.019 41.5765 138.521 41.5765ZM152.831 39.8941H149.674L149.092 41.5038H148.095L150.712 34.3068H151.803L154.41 41.5038H153.413L152.831 39.8941ZM152.561 39.1256L151.252 35.47L149.944 39.1256H152.561ZM167.473 41.5038H166.527L162.726 35.74V41.5038H161.781V34.2549H162.726L166.527 40.0084V34.2549H167.473V41.5038ZM177.568 34.2653C178.358 34.2653 179.04 34.4141 179.614 34.7118C180.196 35.0026 180.639 35.4215 180.944 35.9685C181.255 36.5154 181.411 37.1593 181.411 37.9001C181.411 38.6409 181.255 39.2848 180.944 39.8318C180.639 40.3718 180.196 40.7873 179.614 41.078C179.04 41.3619 178.358 41.5038 177.568 41.5038H175.315V34.2653H177.568ZM177.568 40.7249C178.503 40.7249 179.216 40.4792 179.708 39.9876C180.199 39.4891 180.445 38.7933 180.445 37.9001C180.445 37.0001 180.196 36.2973 179.697 35.7919C179.206 35.2865 178.496 35.0338 177.568 35.0338H176.26V40.7249H177.568ZM189.834 34.2653V41.5038H188.889V34.2653H189.834Z" fill="white"></path>
    <path d="M0 7.37598H26.8561" stroke="white" stroke-width="none"></path>
    <path d="M0 36.9573H26.8561" stroke="white" stroke-width="none"></path>
    <path d="M16.4495 7.37598L5.37134 21.8227L16.4495 37.3013" stroke="white" stroke-width="3.06926"></path>
  </symbol>
  <symbol fill="none" xmlns="http://www.w3.org/2000/svg" viewBox="0 0 26 19" id="mail">
    <path d="M4.51943 0.038147H21.6713C22.7211 0.038147 23.7278 0.434312 24.4701 1.13949C25.2124 1.84467 25.6294 2.80109 25.6294 3.79837V15.079C25.6294 16.0763 25.2124 17.0327 24.4701 17.7379C23.7278 18.4431 22.7211 18.8392 21.6713 18.8392H4.51943C3.46967 18.8392 2.46291 18.4431 1.72062 17.7379C0.978325 17.0327 0.56131 16.0763 0.56131 15.079V3.79837C0.56131 2.80109 0.978325 1.84467 1.72062 1.13949C2.46291 0.434312 3.46967 0.038147 4.51943 0.038147ZM4.51943 1.29155C3.85975 1.29155 3.27922 1.50463 2.83063 1.88065L13.0954 8.18529L23.3601 1.88065C22.9115 1.50463 22.331 1.29155 21.6713 1.29155H4.51943ZM13.0954 9.70191L2.0522 2.89591C1.94665 3.17166 1.88068 3.48501 1.88068 3.79837V15.079C1.88068 15.7439 2.15869 16.3815 2.65356 16.8516C3.14842 17.3217 3.81959 17.5858 4.51943 17.5858H21.6713C22.3711 17.5858 23.0423 17.3217 23.5372 16.8516C24.032 16.3815 24.3101 15.7439 24.3101 15.079V3.79837C24.3101 3.48501 24.2441 3.17166 24.1385 2.89591L13.0954 9.70191Z" fill="#A4A4A4"></path>
  </symbol>
  <symbol fill="none" xmlns="http://www.w3.org/2000/svg" viewBox="0 0 23 24" id="facebook">
    <circle cx="11.5777" cy="12" r="11.2807" fill="#0A66C2"></circle>
    <path d="M12.8284 19.4602V12.9699H15.007L15.3332 10.4405H12.8284V8.82558C12.8284 8.09326 13.0318 7.5942 14.082 7.5942L15.4214 7.59361V5.33137C15.1897 5.30053 14.3946 5.23166 13.4697 5.23166C11.5385 5.23166 10.2165 6.41041 10.2165 8.57517V10.4405H8.03233V12.9699H10.2165V19.4602H12.8284Z" fill="white"></path>
  </symbol>
</svg>